<svg xmlns="http://www.w3.org/2000/svg" xmlns:xlink="http://www.w3.org/1999/xlink" width="239" height="69.135" viewBox="0 0 239 69.135"><defs><style>.a,.c,.e,.f,.h{fill:none;}.b{clip-path:url(#a);}.c,.e,.f,.h{stroke:#32718d;}.c{stroke-width:4.953px;}.d{fill:#32718d;}.e{stroke-width:0.585px;}.f{stroke-width:0.186px;}.g{fill:#ff2d47;}.h{stroke-width:0.124px;}</style><clipPath id="a"><path class="a" d="M2.84,18.858h239V-50.277H2.84Z" transform="translate(-2.84 50.277)"/></clipPath></defs><g transform="translate(-2.84 50.277)"><g class="b" transform="translate(2.84 -50.277)"><g transform="translate(6.63 8.827)"><g transform="translate(0 0)"><path class="c" d="M8.82,3.746C7.234-6.242.129-9.988-7.346-9.988c-7.18,0-14.885,3.827-16.17,13.735ZM-23.516,8.115c0,8.387,5.759,15.226,15.644,15.295l94.749.038" transform="translate(23.516 9.988)"/></g></g><g transform="translate(47.763 12.653)"><g transform="translate(0)"><path class="d" d="M6.05,6.214H1.841V2.78H1.756C-.222,5.953-3.714,7-6.871,7c-5.3,0-9.26-2.348-9.26-8.043v-15.52h4.209v14.65c0,3.348,2.02,5.261,6.524,5.261,3.829,0,7.238-2.3,7.238-6.782V-16.566H6.05Z" transform="translate(16.13 16.566)"/></g></g><g transform="translate(47.763 12.653)"><g transform="translate(0)"><path class="e" d="M6.05,6.214H1.841V2.78H1.756C-.222,5.953-3.714,7-6.871,7c-5.3,0-9.26-2.348-9.26-8.043v-15.52h4.209v14.65c0,3.348,2.02,5.261,6.524,5.261,3.829,0,7.238-2.3,7.238-6.782V-16.566H6.05Z" transform="translate(16.13 16.566)"/></g></g><g transform="translate(75.287 11.871)"><g transform="translate(0 0)"><path class="d" d="M0,.213H4.209V4.387h.084C6.271.779,9.091-.569,11.868-.569a7.99,7.99,0,0,1,2.4.261v4.7a11.3,11.3,0,0,0-2.988-.435c-4.167,0-7.071,2.521-7.071,7.478V22.993H0Z" transform="translate(0 0.569)"/></g></g><g transform="translate(75.287 11.871)"><g transform="translate(0 0)"><path class="e" d="M0,.213H4.209V4.387h.084C6.271.779,9.091-.569,11.868-.569a7.99,7.99,0,0,1,2.4.261v4.7a11.3,11.3,0,0,0-2.988-.435c-4.167,0-7.071,2.521-7.071,7.478V22.993H0Z" transform="translate(0 0.569)"/></g></g><g transform="translate(91.658 11.871)"><g transform="translate(0 0)"><path class="d" d="M3.49,1c-6.1,0-8.333,4.391-8.333,8.521s2.231,8.521,8.333,8.521,8.333-4.391,8.333-8.521S9.592,1,3.49,1m0-3.652c8.586,0,12.794,5.608,12.794,12.173S12.076,21.69,3.49,21.69-9.3,16.082-9.3,9.517-5.1-2.656,3.49-2.656" transform="translate(9.305 2.656)"/></g></g><g transform="translate(91.658 11.871)"><g transform="translate(0 0)"><path class="e" d="M3.49,1c-6.1,0-8.333,4.391-8.333,8.521s2.231,8.521,8.333,8.521,8.333-4.391,8.333-8.521S9.592,1,3.49,1Zm0-3.652c8.586,0,12.794,5.608,12.794,12.173S12.076,21.69,3.49,21.69-9.3,16.082-9.3,9.517-5.1-2.656,3.49-2.656Z" transform="translate(9.305 2.656)"/></g></g><g transform="translate(151.671 11.871)"><g transform="translate(0 0)"><path class="d" d="M0,.213H4.21V4.387h.083C6.273.779,9.091-.569,11.868-.569a7.99,7.99,0,0,1,2.4.261v4.7a11.3,11.3,0,0,0-2.989-.435c-4.165,0-7.07,2.521-7.07,7.478V22.993H0Z" transform="translate(0 0.569)"/></g></g><g transform="translate(151.671 11.871)"><g transform="translate(0 0)"><path class="e" d="M0,.213H4.21V4.387h.083C6.273.779,9.091-.569,11.868-.569a7.99,7.99,0,0,1,2.4.261v4.7a11.3,11.3,0,0,0-2.989-.435c-4.165,0-7.07,2.521-7.07,7.478V22.993H0Z" transform="translate(0 0.569)"/></g></g><g transform="translate(167.455 11.871)"><g transform="translate(0 0)"><path class="d" d="M3.489,1c-6.1,0-8.332,4.391-8.332,8.521s2.231,8.521,8.332,8.521,8.333-4.391,8.333-8.521S9.593,1,3.489,1m0-3.652c8.587,0,12.8,5.608,12.8,12.173S12.076,21.69,3.489,21.69-9.3,16.082-9.3,9.517-5.1-2.656,3.489-2.656" transform="translate(9.303 2.656)"/></g></g><g transform="translate(167.455 11.871)"><g transform="translate(0 0)"><path class="e" d="M3.489,1c-6.1,0-8.332,4.391-8.332,8.521s2.231,8.521,8.332,8.521,8.333-4.391,8.333-8.521S9.593,1,3.489,1Zm0-3.652c8.587,0,12.8,5.608,12.8,12.173S12.076,21.69,3.489,21.69-9.3,16.082-9.3,9.517-5.1-2.656,3.489-2.656Z" transform="translate(9.303 2.656)"/></g></g><g transform="translate(194.219 3.61)"><g transform="translate(0 0)"><path class="d" d="M1.229,1.542C1.229-2.675,3.753-4.11,8-4.11a32.593,32.593,0,0,1,3.662.349v3.39c-.8-.043-1.6-.087-2.358-.087-2.735,0-3.87.348-3.87,2.217V4.932h6.228V8.323H5.438V27.713H1.229V8.323h-4.5V4.932h4.5Z" transform="translate(3.276 4.11)"/></g></g><g transform="translate(194.219 3.61)"><g transform="translate(0 0)"><path class="e" d="M1.229,1.542C1.229-2.675,3.753-4.11,8-4.11a32.593,32.593,0,0,1,3.662.349v3.39c-.8-.043-1.6-.087-2.358-.087-2.735,0-3.87.348-3.87,2.217V4.932h6.228V8.323H5.438V27.713H1.229V8.323h-4.5V4.932h4.5Z" transform="translate(3.276 4.11)"/></g></g><g transform="translate(211.642 4.133)"><path class="d" d="M214.1,47.438h4.21v22.78H214.1Zm0-8.52h4.21V43.7H214.1Z" transform="translate(-214.102 -38.918)"/></g><g transform="translate(211.642 4.133)"><g transform="translate(0 0)"><path class="e" d="M0,2.324H4.21V25.1H0ZM0-6.2H4.21v4.782H0Z" transform="translate(0 6.196)"/></g></g><g transform="translate(221.195 4.133)"><path class="d" d="M221.05,38.918h4.21v31.3h-4.21Z" transform="translate(-221.05 -38.918)"/></g><g transform="translate(221.195 4.133)"><g transform="translate(0 0)"><path class="e" d="M0,0H4.21V31.3H0Z"/></g></g><g transform="translate(120.36 12.326)"><g transform="translate(0 0)"><path class="d" d="M4.641,3.985c4.95,0,6.6-2.479,6.6-5.608,0-2.958-1.885-5-5.7-5H-7.377V3.985ZM-12.373-10.624H4.973c7.4,0,11.263,3.129,11.263,8.912,0,5.825-3.865,9.694-10.934,9.694H-7.377V23.99h-5Z" transform="translate(12.373 10.624)"/></g></g><g transform="translate(120.36 12.326)"><g transform="translate(0 0)"><path class="f" d="M4.641,3.985c4.95,0,6.6-2.479,6.6-5.608,0-2.958-1.885-5-5.7-5H-7.377V3.985ZM-12.373-10.624H4.973c7.4,0,11.263,3.129,11.263,8.912,0,5.825-3.865,9.694-10.934,9.694H-7.377V23.99h-5Z" transform="translate(12.373 10.624)"/></g></g><g transform="translate(230.362 3.77)"><path class="g" d="M232.6,44.142h-4.884V38.655H232.6Z" transform="translate(-227.716 -38.655)"/></g><g transform="translate(230.736 12.657)"><path class="d" d="M227.988,45.117h4.21V67.9h-4.21Z" transform="translate(-227.988 -45.117)"/></g><g transform="translate(230.736 12.657)"><path class="e" d="M0,0H4.21V22.779H0Z"/></g><g transform="translate(1.041 3.99)"><g transform="translate(0 0)"><path class="g" d="M11.147,6.257H-24.129c0,8.387,5.759,15.226,15.644,15.295l94.75.038V26.4l-94.75,0C-24.463,26.322-29.718,14.73-29.718,4.857c0-11.318,6.725-21.54,21.381-21.54,9.6,0,20.885,4.068,22.037,20.173l.018.2a2.528,2.528,0,0,1-2.485,2.568ZM8.207,1.889C6.621-8.1-.484-11.846-7.958-11.846c-7.181,0-14.885,3.826-16.171,13.735Z" transform="translate(29.718 16.682)"/></g></g><g transform="translate(6.542 22.205)"><g transform="translate(0 0)"><path class="d" d="M.907.084-.987-.147-2.3-.224A32.35,32.35,0,0,0-2.274,5.7l1.5-.515,1.791-.664V.1Z" transform="translate(2.419 0.224)"/></g></g><g transform="translate(1.683 57.383)"><g transform="translate(0 0)"><path class="d" d="M1.019,2.731a5.094,5.094,0,0,1-3.734-1.3l.6-.524a4.2,4.2,0,0,0,3.183,1.16c1.765,0,2.884-.746,2.884-2.031a1.678,1.678,0,0,0-.614-1.384,2.934,2.934,0,0,0-1.623-.526L.4-2.054a4.2,4.2,0,0,1-2-.719,2.126,2.126,0,0,1-.882-1.812c0-1.646,1.339-2.7,3.482-2.7a4.8,4.8,0,0,1,3.23,1.066l-.551.485A3.926,3.926,0,0,0,.955-6.645c-1.623,0-2.6.788-2.6,2.032a1.492,1.492,0,0,0,.583,1.286,3.847,3.847,0,0,0,1.67.608l1.214.166a3.852,3.852,0,0,1,2,.651A2.3,2.3,0,0,1,4.8.007c0,1.66-1.45,2.725-3.781,2.725" transform="translate(2.716 7.282)"/></g></g><g transform="translate(1.683 57.383)"><g transform="translate(0 0)"><path class="h" d="M1.019,2.731a5.094,5.094,0,0,1-3.734-1.3l.6-.524a4.2,4.2,0,0,0,3.183,1.16c1.765,0,2.884-.746,2.884-2.031a1.678,1.678,0,0,0-.614-1.384,2.934,2.934,0,0,0-1.623-.526L.4-2.054a4.2,4.2,0,0,1-2-.719,2.126,2.126,0,0,1-.882-1.812c0-1.646,1.339-2.7,3.482-2.7a4.8,4.8,0,0,1,3.23,1.066l-.551.485A3.926,3.926,0,0,0,.955-6.645c-1.623,0-2.6.788-2.6,2.032a1.492,1.492,0,0,0,.583,1.286,3.847,3.847,0,0,0,1.67.608l1.214.166a3.852,3.852,0,0,1,2,.651A2.3,2.3,0,0,1,4.8.007C4.8,1.667,3.35,2.731,1.019,2.731Z" transform="translate(2.716 7.282)"/></g></g><g transform="translate(13.982 57.469)"><path class="d" d="M70.358,77.706h.851v9.845h-.851Z" transform="translate(-70.358 -77.706)"/></g><g transform="translate(13.982 57.468)"><g transform="translate(0)"><path class="h" d="M0,0H.851V9.845H0Z"/></g></g><g transform="translate(19.495 57.383)"><g transform="translate(0 0)"><path class="d" d="M1.018,2.731a5.092,5.092,0,0,1-3.733-1.3l.6-.524a4.2,4.2,0,0,0,3.182,1.16c1.765,0,2.884-.746,2.884-2.031a1.679,1.679,0,0,0-.613-1.384,2.938,2.938,0,0,0-1.624-.526L.4-2.054a4.19,4.19,0,0,1-2-.719,2.125,2.125,0,0,1-.883-1.812c0-1.646,1.34-2.7,3.483-2.7A4.8,4.8,0,0,1,4.233-6.216l-.551.485A3.925,3.925,0,0,0,.956-6.645c-1.624,0-2.6.788-2.6,2.032a1.492,1.492,0,0,0,.583,1.286,3.851,3.851,0,0,0,1.67.608l1.214.166a3.849,3.849,0,0,1,2,.651A2.3,2.3,0,0,1,4.8.007c0,1.66-1.449,2.725-3.781,2.725" transform="translate(2.715 7.282)"/></g></g><g transform="translate(19.495 57.383)"><g transform="translate(0 0)"><path class="h" d="M1.018,2.731a5.092,5.092,0,0,1-3.733-1.3l.6-.524a4.2,4.2,0,0,0,3.182,1.16c1.765,0,2.884-.746,2.884-2.031a1.679,1.679,0,0,0-.613-1.384,2.938,2.938,0,0,0-1.624-.526L.4-2.054a4.19,4.19,0,0,1-2-.719,2.125,2.125,0,0,1-.883-1.812c0-1.646,1.34-2.7,3.483-2.7A4.8,4.8,0,0,1,4.233-6.216l-.551.485A3.925,3.925,0,0,0,.956-6.645c-1.624,0-2.6.788-2.6,2.032a1.492,1.492,0,0,0,.583,1.286,3.851,3.851,0,0,0,1.67.608l1.214.166a3.849,3.849,0,0,1,2,.651A2.3,2.3,0,0,1,4.8.007C4.8,1.667,3.351,2.731,1.018,2.731Z" transform="translate(2.715 7.282)"/></g></g><g transform="translate(30.533 57.468)"><g transform="translate(0 0)"><path class="d" d="M1.143.181V9.364H.292V.181h-3.34V-.482H4.5V.181Z" transform="translate(3.048 0.482)"/></g></g><g transform="translate(30.533 57.468)"><g transform="translate(0 0)"><path class="h" d="M1.143.181V9.364H.292V.181h-3.34V-.482H4.5V.181Z" transform="translate(3.048 0.482)"/></g></g><g transform="translate(42.408 57.468)"><g transform="translate(0 0)"><path class="d" d="M0,2.686V-7.16H6.806V-6.5H.851v3.886H5.924v.664H.851V2.022H6.806v.664Z" transform="translate(0 7.16)"/></g></g><g transform="translate(42.408 57.468)"><g transform="translate(0 0)"><path class="h" d="M0,2.686V-7.16H6.806V-6.5H.851v3.886H5.924v.664H.851V2.022H6.806v.664Z" transform="translate(0 7.16)"/></g></g><g transform="translate(53.952 57.468)"><g transform="translate(0 0)"><path class="d" d="M2.338,2.686V-5.432L-1.065,1.3h-.852L-5.384-5.432V2.686h-.85V-7.16h.85L-1.474.43,2.338-7.16h.851V2.686Z" transform="translate(6.233 7.16)"/></g></g><g transform="translate(53.952 57.468)"><g transform="translate(0 0)"><path class="h" d="M2.338,2.686V-5.432L-1.065,1.3h-.852L-5.384-5.432V2.686h-.85V-7.16h.85L-1.474.43,2.338-7.16h.851V2.686Z" transform="translate(6.233 7.16)"/></g></g><g transform="translate(68.96 57.469)"><path class="d" d="M110.339,77.706h.851v9.845h-.851Z" transform="translate(-110.339 -77.706)"/></g><g transform="translate(68.96 57.468)"><g transform="translate(0)"><path class="h" d="M0,0H.851V9.845H0Z"/></g></g><g transform="translate(81.543 57.468)"><g transform="translate(0 0)"><path class="d" d="M1.1.181H-2.071V4.525H1.1c1.545,0,2.632-.693,2.632-2.172S2.641.181,1.1.181m.1,5.007H-2.071V9.364h-.851V-.482H1.191C3.13-.482,4.579.555,4.579,2.353S3.13,5.188,1.191,5.188" transform="translate(2.922 0.482)"/></g></g><g transform="translate(81.543 57.468)"><g transform="translate(0 0)"><path class="h" d="M1.1.181H-2.071V4.525H1.1c1.545,0,2.632-.693,2.632-2.172S2.641.181,1.1.181Zm.1,5.007H-2.071V9.364h-.851V-.482H1.191C3.13-.482,4.579.555,4.579,2.353S3.13,5.188,1.191,5.188Z" transform="translate(2.922 0.482)"/></g></g><g transform="translate(93.606 57.468)"><g transform="translate(0 0)"><path class="d" d="M0,2.686V-7.16H6.806V-6.5H.85v3.886H5.924v.664H.85V2.022H6.806v.664Z" transform="translate(0 7.16)"/></g></g><g transform="translate(93.606 57.468)"><g transform="translate(0 0)"><path class="h" d="M0,2.686V-7.16H6.806V-6.5H.85v3.886H5.924v.664H.85V2.022H6.806v.664Z" transform="translate(0 7.16)"/></g></g><g transform="translate(105.149 57.468)"><g transform="translate(0 0)"><path class="d" d="M1.135.181h-3.31V4.164h3.31c1.434,0,2.475-.635,2.475-1.99S2.568.181,1.135.181M3.592,9.364.914,4.829h-3.09V9.364h-.85V-.482h4.27c1.828,0,3.214.926,3.214,2.641A2.672,2.672,0,0,1,1.875,4.815l2.71,4.549Z" transform="translate(3.025 0.482)"/></g></g><g transform="translate(105.149 57.468)"><g transform="translate(0 0)"><path class="h" d="M1.135.181h-3.31V4.164h3.31c1.434,0,2.475-.635,2.475-1.99S2.568.181,1.135.181ZM3.592,9.364.914,4.829h-3.09V9.364h-.85V-.482h4.27c1.828,0,3.214.926,3.214,2.641A2.672,2.672,0,0,1,1.875,4.815l2.71,4.549Z" transform="translate(3.025 0.482)"/></g></g><g transform="translate(122.834 57.383)"><g transform="translate(0 0)"><path class="d" d="M1.019,2.731a5.1,5.1,0,0,1-3.735-1.3l.6-.524a4.2,4.2,0,0,0,3.183,1.16c1.765,0,2.883-.746,2.883-2.031a1.679,1.679,0,0,0-.613-1.384,2.935,2.935,0,0,0-1.624-.526L.4-2.054a4.194,4.194,0,0,1-2-.719A2.127,2.127,0,0,1-2.48-4.585c0-1.646,1.34-2.7,3.482-2.7a4.793,4.793,0,0,1,3.23,1.066l-.551.485A3.923,3.923,0,0,0,.956-6.645c-1.624,0-2.6.788-2.6,2.032a1.492,1.492,0,0,0,.583,1.286,3.855,3.855,0,0,0,1.67.608l1.214.166a3.846,3.846,0,0,1,2,.651A2.3,2.3,0,0,1,4.8.007c0,1.66-1.45,2.725-3.781,2.725" transform="translate(2.716 7.282)"/></g></g><g transform="translate(122.834 57.383)"><g transform="translate(0 0)"><path class="h" d="M1.019,2.731a5.1,5.1,0,0,1-3.735-1.3l.6-.524a4.2,4.2,0,0,0,3.183,1.16c1.765,0,2.883-.746,2.883-2.031a1.679,1.679,0,0,0-.613-1.384,2.935,2.935,0,0,0-1.624-.526L.4-2.054a4.194,4.194,0,0,1-2-.719A2.127,2.127,0,0,1-2.48-4.585c0-1.646,1.34-2.7,3.482-2.7a4.793,4.793,0,0,1,3.23,1.066l-.551.485A3.923,3.923,0,0,0,.956-6.645c-1.624,0-2.6.788-2.6,2.032a1.492,1.492,0,0,0,.583,1.286,3.855,3.855,0,0,0,1.67.608l1.214.166a3.846,3.846,0,0,1,2,.651A2.3,2.3,0,0,1,4.8.007C4.8,1.667,3.35,2.731,1.019,2.731Z" transform="translate(2.716 7.282)"/></g></g><g transform="translate(135.134 57.468)"><g transform="translate(0 0)"><path class="d" d="M0,2.686V-7.16H6.806V-6.5H.851v3.886H5.925v.664H.851V2.022H6.806v.664Z" transform="translate(0 7.16)"/></g></g><g transform="translate(135.134 57.468)"><g transform="translate(0 0)"><path class="h" d="M0,2.686V-7.16H6.806V-6.5H.851v3.886H5.925v.664H.851V2.022H6.806v.664Z" transform="translate(0 7.16)"/></g></g><g transform="translate(146.677 57.468)"><g transform="translate(0 0)"><path class="d" d="M1.135.181H-2.176V4.164H1.135c1.432,0,2.474-.635,2.474-1.99S2.567.181,1.135.181M3.591,9.364.912,4.829H-2.176V9.364h-.851V-.482H1.245c1.828,0,3.214.926,3.214,2.641A2.672,2.672,0,0,1,1.876,4.815L4.584,9.364Z" transform="translate(3.026 0.482)"/></g></g><g transform="translate(146.677 57.468)"><g transform="translate(0 0)"><path class="h" d="M1.135.181H-2.176V4.164H1.135c1.432,0,2.474-.635,2.474-1.99S2.567.181,1.135.181ZM3.591,9.364.912,4.829H-2.176V9.364h-.851V-.482H1.245c1.828,0,3.214.926,3.214,2.641A2.672,2.672,0,0,1,1.876,4.815L4.584,9.364Z" transform="translate(3.026 0.482)"/></g></g><g transform="translate(159.151 57.468)"><g transform="translate(0 0)"><path class="d" d="M1.135.181H-2.177V4.164H1.135c1.432,0,2.474-.635,2.474-1.99S2.567.181,1.135.181M3.591,9.364.913,4.829h-3.09V9.364h-.849V-.482h4.27c1.828,0,3.214.926,3.214,2.641A2.672,2.672,0,0,1,1.875,4.815L4.585,9.364Z" transform="translate(3.026 0.482)"/></g></g><g transform="translate(159.151 57.468)"><g transform="translate(0 0)"><path class="h" d="M1.135.181H-2.177V4.164H1.135c1.432,0,2.474-.635,2.474-1.99S2.567.181,1.135.181ZM3.591,9.364.913,4.829h-3.09V9.364h-.849V-.482h4.27c1.828,0,3.214.926,3.214,2.641A2.672,2.672,0,0,1,1.875,4.815L4.585,9.364Z" transform="translate(3.026 0.482)"/></g></g><g transform="translate(170.127 57.467)"><g transform="translate(0 0)"><path class="d" d="M1.229.271l-2.348,5.8h4.7ZM4.822,9.123,3.846,6.729H-1.387l-.977,2.394h-.913L.851-.724h.756L5.735,9.123Z" transform="translate(3.277 0.724)"/></g></g><g transform="translate(170.127 57.467)"><g transform="translate(0 0)"><path class="h" d="M1.229.271l-2.348,5.8h4.7ZM4.822,9.123,3.846,6.729H-1.387l-.977,2.394h-.913L.851-.724h.756L5.735,9.123Z" transform="translate(3.277 0.724)"/></g></g><g transform="translate(183.23 57.468)"><g transform="translate(0 0)"><path class="d" d="M2.338,2.686V-5.432L-1.065,1.3h-.852L-5.384-5.432V2.686h-.85V-7.16h.85L-1.476.43,2.338-7.16h.851V2.686Z" transform="translate(6.234 7.16)"/></g></g><g transform="translate(183.23 57.468)"><g transform="translate(0 0)"><path class="h" d="M2.338,2.686V-5.432L-1.065,1.3h-.852L-5.384-5.432V2.686h-.85V-7.16h.85L-1.476.43,2.338-7.16h.851V2.686Z" transform="translate(6.234 7.16)"/></g></g><g transform="translate(198.238 57.468)"><g transform="translate(0 0)"><path class="d" d="M0,2.686V-7.16H6.806V-6.5H.85v3.886H5.925v.664H.85V2.022H6.806v.664Z" transform="translate(0 7.16)"/></g></g><g transform="translate(198.238 57.468)"><g transform="translate(0 0)"><path class="h" d="M0,2.686V-7.16H6.806V-6.5H.85v3.886H5.925v.664H.85V2.022H6.806v.664Z" transform="translate(0 7.16)"/></g></g><g transform="translate(209.781 57.468)"><g transform="translate(0 0)"><path class="d" d="M2,2.686-4.478-5.875V2.686h-.851V-7.16h.851L2,1.371V-7.16h.851V2.686Z" transform="translate(5.328 7.16)"/></g></g><g transform="translate(209.781 57.468)"><g transform="translate(0 0)"><path class="h" d="M2,2.686-4.478-5.875V2.686h-.851V-7.16h.851L2,1.371V-7.16h.851V2.686Z" transform="translate(5.328 7.16)"/></g></g><g transform="translate(222.285 57.468)"><g transform="translate(0 0)"><path class="d" d="M1.143.181V9.364H.291V.181H-3.048V-.482H4.5V.181Z" transform="translate(3.048 0.482)"/></g></g><g transform="translate(222.285 57.468)"><g transform="translate(0 0)"><path class="h" d="M1.143.181V9.364H.291V.181H-3.048V-.482H4.5V.181Z" transform="translate(3.048 0.482)"/></g></g><g transform="translate(234.16 57.469)"><path class="d" d="M230.478,77.706h.851v9.845h-.851Z" transform="translate(-230.478 -77.706)"/></g><g transform="translate(234.16 57.468)"><path class="h" d="M0,0H.851V9.845H0Z"/></g></g></g></svg>